<svg xmlns="http://www.w3.org/2000/svg" xmlns:xlink="http://www.w3.org/1999/xlink" viewBox="0 0 939.62 97.79"><defs><style>.a{fill:url(#a);}.b{fill:url(#b);}.c{fill:url(#c);}.d{fill:url(#d);}.e{fill:url(#e);}.f{fill:url(#f);}.g{fill:url(#g);}.h{fill:url(#h);}.i{fill:url(#i);}.j{fill:url(#j);}.k{fill:url(#k);}.l{fill:url(#l);}</style><linearGradient id="a" x1="4.81" y1="49.02" x2="69.38" y2="49.02" gradientUnits="userSpaceOnUse"><stop offset="0" stop-color="#807e83"/><stop offset="1" stop-color="#5d5b60"/></linearGradient><linearGradient id="b" x1="78.62" y1="49.02" x2="169.71" y2="49.02" xlink:href="#a"/><linearGradient id="c" x1="174.27" y1="49.02" x2="241.36" y2="49.02" xlink:href="#a"/><linearGradient id="d" x1="347.69" y1="49.08" x2="437.83" y2="49.08" xlink:href="#a"/><linearGradient id="e" x1="451.87" y1="49.02" x2="523.58" y2="49.02" xlink:href="#a"/><linearGradient id="f" x1="529.44" y1="49.02" x2="618.26" y2="49.02" xlink:href="#a"/><linearGradient id="g" x1="629.85" y1="49.02" x2="700.18" y2="49.02" xlink:href="#a"/><linearGradient id="h" x1="711.1" y1="49.02" x2="788.03" y2="49.02" xlink:href="#a"/><linearGradient id="i" x1="809.63" y1="49.08" x2="826.43" y2="49.08" xlink:href="#a"/><linearGradient id="j" x1="843.6" y1="48.3" x2="934.81" y2="48.3" xlink:href="#a"/><linearGradient id="k" x1="247.44" y1="48.67" x2="338.5" y2="48.67" xlink:href="#a"/><linearGradient id="l" x1="279.09" y1="51.69" x2="307.15" y2="51.69" xlink:href="#a"/></defs><title>fotographiq_text_light</title><path class="a" d="M21.61,23.7V38a3.69,3.69,0,0,0,3.72,3.72h35A3.4,3.4,0,0,1,63,42.78a3.71,3.71,0,0,1,1,2.64v8a3.7,3.7,0,0,1-1,2.64,3.4,3.4,0,0,1-2.58,1.08h-35a3.69,3.69,0,0,0-3.72,3.72V89.23a3.71,3.71,0,0,1-1,2.64A3.4,3.4,0,0,1,18,92.95H8.53a3.68,3.68,0,0,1-3.72-3.72V8.82A3.69,3.69,0,0,1,8.53,5.09H65.78a3.4,3.4,0,0,1,2.58,1.08,3.71,3.71,0,0,1,1,2.64v7.44a3.71,3.71,0,0,1-1,2.64A3.4,3.4,0,0,1,65.78,20H25.33a3.69,3.69,0,0,0-3.72,3.72Z"/><path class="b" d="M124.1,94.63A43.78,43.78,0,0,1,106.46,91,46,46,0,0,1,82.22,66.78,44.06,44.06,0,0,1,78.62,49a44.19,44.19,0,0,1,3.6-17.7A45.89,45.89,0,0,1,106.46,7a45.31,45.31,0,0,1,35.4,0,45.89,45.89,0,0,1,24.24,24.3,44.19,44.19,0,0,1,3.6,17.7,44.06,44.06,0,0,1-3.6,17.76A46,46,0,0,1,141.87,91,44.08,44.08,0,0,1,124.1,94.63Zm.06-75.49A25.94,25.94,0,0,0,113,21.6a30.46,30.46,0,0,0-9.1,6.54,30.87,30.87,0,0,0-6.17,9.54,29.56,29.56,0,0,0,0,22.74A31.85,31.85,0,0,0,103.86,70a29.89,29.89,0,0,0,9.1,6.6,26.71,26.71,0,0,0,22.4,0,29.89,29.89,0,0,0,9.1-6.6,31.85,31.85,0,0,0,6.17-9.54,29.54,29.54,0,0,0,0-22.74,30.87,30.87,0,0,0-6.17-9.54,30.46,30.46,0,0,0-9.1-6.54A25.93,25.93,0,0,0,124.16,19.14Z"/><path class="c" d="M237.64,20H220a3.69,3.69,0,0,0-3.72,3.72V89.23a3.68,3.68,0,0,1-3.72,3.72H203.2a3.68,3.68,0,0,1-3.72-3.72V23.7A3.69,3.69,0,0,0,195.75,20H178a3.69,3.69,0,0,1-3.72-3.72V8.82A3.69,3.69,0,0,1,178,5.09h59.65a3.69,3.69,0,0,1,3.72,3.72v7.44A3.69,3.69,0,0,1,237.64,20Z"/><path class="d" d="M437.83,48.66q-.12,2.4-.18,4.8a17.61,17.61,0,0,1-.18,2.76A38.59,38.59,0,0,1,433,71.59a42.45,42.45,0,0,1-9.72,12.12,43.22,43.22,0,0,1-13.68,8,46.79,46.79,0,0,1-16.32,2.88A43.78,43.78,0,0,1,375.66,91a46.61,46.61,0,0,1-14.52-9.84,46.11,46.11,0,0,1-9.84-14.4,43.77,43.77,0,0,1-3.6-17.64,45.25,45.25,0,0,1,7.86-25.56,46.69,46.69,0,0,1,5.58-6.72,49.63,49.63,0,0,1,14.52-9.72,45,45,0,0,1,53.29,13.68,3.06,3.06,0,0,1,.66,2.64A3.47,3.47,0,0,1,428,25.74l-8.16,4.92a3.53,3.53,0,0,1-2.82.48,5.35,5.35,0,0,1-2.58-1.44,44,44,0,0,0-3.54-3.6,24.66,24.66,0,0,0-4.14-3,25.62,25.62,0,0,0-13.44-3.84,27.22,27.22,0,0,0-11.16,2.4,29.14,29.14,0,0,0-9.12,6.6,33.61,33.61,0,0,0-6.24,9.48,29,29,0,0,0-2.28,11.4,28.44,28.44,0,0,0,2.28,11.4A33.56,33.56,0,0,0,373,70a27,27,0,0,0,9.12,6.48A25.07,25.07,0,0,0,393.3,79a29.15,29.15,0,0,0,16.44-5.28,29,29,0,0,0,6.12-6,17.23,17.23,0,0,0,2.4-4.2,2.18,2.18,0,0,0-.06-2.46,2.76,2.76,0,0,0-2.34-1h-25a3.69,3.69,0,0,1-3.72-3.72V48.66a3.69,3.69,0,0,1,3.72-3.72h43.21a3.69,3.69,0,0,1,3.72,3.72Z"/><path class="e" d="M465.07,92.95h-9.48a3.68,3.68,0,0,1-3.72-3.72V8.82a3.69,3.69,0,0,1,3.72-3.72h36.25a34.31,34.31,0,0,1,12.36,2.16,31.59,31.59,0,0,1,9.48,6.24,27.55,27.55,0,0,1,3.6,4.44,28.68,28.68,0,0,1,2.64,5.16,34,34,0,0,1,2.16,12.24q0,10.2-4.92,17.4a28,28,0,0,1-10,9.12,3.24,3.24,0,0,0-1.68,2,2.63,2.63,0,0,0,.6,2.46q4.44,6,8.46,11.34T522.92,89a2.85,2.85,0,0,1,.54,2.64,1.85,1.85,0,0,1-2,1.32H509.35a7.2,7.2,0,0,1-3.24-.84,7.68,7.68,0,0,1-2.64-2q-2-2.76-4-5.46l-4-5.46L487.51,68a7.16,7.16,0,0,0-2.64-2.16,7.26,7.26,0,0,0-3.24-.84h-9.24a3.69,3.69,0,0,0-3.72,3.72V89.23a3.71,3.71,0,0,1-1,2.64A3.4,3.4,0,0,1,465.07,92.95Zm7.32-42.85h19.44a13.22,13.22,0,0,0,4.68-1A11.94,11.94,0,0,0,501,46.38a16.33,16.33,0,0,0,3.12-4.56,15.13,15.13,0,0,0,1.2-6.48,23.44,23.44,0,0,0-.48-4.56,14.8,14.8,0,0,0-.72-2.58q-.48-1.26-1.08-2.46a12.45,12.45,0,0,0-4.08-4.08A13.47,13.47,0,0,0,491.83,20H472.39a3.69,3.69,0,0,0-3.72,3.72V46.38a3.68,3.68,0,0,0,3.72,3.72Z"/><path class="f" d="M529.76,89.71,571.4,6.54a2.72,2.72,0,0,1,4.8,0l41.64,83.17A2.26,2.26,0,0,1,618,92a2.19,2.19,0,0,1-2.1,1H605a5.89,5.89,0,0,1-3.12-1,5.15,5.15,0,0,1-2.16-2.4l-3.6-7.2a6.39,6.39,0,0,0-2.22-2.28,5.64,5.64,0,0,0-3.06-1H556.76a5.92,5.92,0,0,0-3.12,1,5.17,5.17,0,0,0-2.16,2.4L548,89.59a6.06,6.06,0,0,1-2.22,2.4,5.61,5.61,0,0,1-3.06,1H531.8a2.19,2.19,0,0,1-2.1-1A2.42,2.42,0,0,1,529.76,89.71Zm35.17-25.2h17.76a2.15,2.15,0,0,0,2.1-1,2.55,2.55,0,0,0-.06-2.34l-9.36-19.8q-.6-1.44-1.56-1.44t-1.56,1.44l-9.48,19.8a2.52,2.52,0,0,0,0,2.4A2.34,2.34,0,0,0,564.92,64.5Z"/><path class="g" d="M681.22,7.5a32.6,32.6,0,0,1,9.84,6.72,24.42,24.42,0,0,1,3.78,4.56,48.78,48.78,0,0,1,2.94,5.28,32.12,32.12,0,0,1,2.4,12.24,32.64,32.64,0,0,1-2.16,12,26.87,26.87,0,0,1-6.36,9.6,28.8,28.8,0,0,1-10.56,6.48,43.29,43.29,0,0,1-14.88,2.4H650.37a3.69,3.69,0,0,0-3.72,3.72V89.23a3.71,3.71,0,0,1-1,2.64,3.4,3.4,0,0,1-2.58,1.08h-9.48a3.68,3.68,0,0,1-3.72-3.72V8.82a3.69,3.69,0,0,1,3.72-3.72H669A32.12,32.12,0,0,1,681.22,7.5Zm-5.76,42.85A12.11,12.11,0,0,0,680,47a15.7,15.7,0,0,0,1.5-2.34,12.93,12.93,0,0,0,1-2.58,18.54,18.54,0,0,0-.24-11.76,14.64,14.64,0,0,0-3.12-5.16,14.29,14.29,0,0,0-5-3.72,15.44,15.44,0,0,0-7-1.44h-16.8a3.69,3.69,0,0,0-3.72,3.72V47.94a3.68,3.68,0,0,0,3.72,3.72H669A15.37,15.37,0,0,0,675.46,50.34Z"/><path class="h" d="M788,8.82V89.23a3.68,3.68,0,0,1-3.72,3.72h-9.36a3.68,3.68,0,0,1-3.72-3.72V61.74A3.68,3.68,0,0,0,767.51,58H731.62a3.68,3.68,0,0,0-3.72,3.72V89.23a3.68,3.68,0,0,1-3.72,3.72h-9.36a3.69,3.69,0,0,1-3.72-3.72V8.82a3.69,3.69,0,0,1,3.72-3.72h9.36a3.69,3.69,0,0,1,3.72,3.72v30.6a3.69,3.69,0,0,0,3.72,3.72h35.89a3.69,3.69,0,0,0,3.72-3.72V8.82a3.69,3.69,0,0,1,3.72-3.72h9.36A3.69,3.69,0,0,1,788,8.82Z"/><path class="i" d="M822.71,92.95h-9.48a3.39,3.39,0,0,1-2.58-1.08,3.7,3.7,0,0,1-1-2.64V8.93a3.7,3.7,0,0,1,1-2.64,3.39,3.39,0,0,1,2.58-1.08h9.48a3.69,3.69,0,0,1,3.72,3.72V89.23a3.68,3.68,0,0,1-3.72,3.72Z"/><path class="j" d="M934.81,81.31v8a3.69,3.69,0,0,1-3.72,3.72h-40q-12.24,0-21.24-3.6a39.43,39.43,0,0,1-14.76-9.6,37.56,37.56,0,0,1-8.76-14.16,54.61,54.61,0,0,1-2.76-17.4,44.44,44.44,0,0,1,3.48-17.4,49.81,49.81,0,0,1,9.6-14.28A47.17,47.17,0,0,1,870.84,7a44.46,44.46,0,0,1,17.4-3.48A45,45,0,0,1,905.65,7a46.16,46.16,0,0,1,14.16,9.6,46.8,46.8,0,0,1,9.6,14.28A42.64,42.64,0,0,1,933,48.3a38.87,38.87,0,0,1-1,8.16,38.23,38.23,0,0,1-2.88,8.16,38,38,0,0,1-5.28,7.32,14.7,14.7,0,0,1-2.16,2l-2.52,1.86q-2.76,1.8.48,1.8h11.4a3.68,3.68,0,0,1,3.72,3.72Zm-74.41-33a28,28,0,0,0,2.16,10.92,29.44,29.44,0,0,0,14.88,15.24,25.37,25.37,0,0,0,10.8,2.28,26.19,26.19,0,0,0,10.92-2.28,27.35,27.35,0,0,0,8.76-6.24,27.69,27.69,0,0,0,6-9,26.18,26.18,0,0,0,2.28-10.92,26.49,26.49,0,0,0-2.28-11,27.76,27.76,0,0,0-6-9,30.35,30.35,0,0,0-8.76-6.12,26.19,26.19,0,0,0-10.92-2.28,25.37,25.37,0,0,0-10.8,2.28,30.78,30.78,0,0,0-8.88,6.12,27.76,27.76,0,0,0-6,9A28.89,28.89,0,0,0,860.4,48.3Z"/><path class="k" d="M293.17,3.17A45.51,45.51,0,1,1,247.45,47.5,45.43,45.43,0,0,1,293.17,3.17ZM293,68.95h23.79a4.11,4.11,0,0,0,2.74-1A4.35,4.35,0,0,0,321,64.39q0-12.55,0-25.09a6.94,6.94,0,0,0-.06-1.08,4,4,0,0,0-1.33-2.41,4.39,4.39,0,0,0-3.08-1.1H281.87c-.83,0-.83,0-.83-.85,0-1.63,0-3.26,0-4.89,0-.46-.14-.65-.63-.65-2.63,0-5.25,0-7.88,0-.64,0-.71.07-.71.73,0,1.65,0,3.3,0,4.94,0,.53-.13.76-.7.72s-1.23,0-1.85,0A4.21,4.21,0,0,0,264.91,39q0,12.82,0,25.64a4.18,4.18,0,0,0,4.32,4.27Z"/><path class="l" d="M293.15,37.66a14,14,0,1,1-14.07,14A14,14,0,0,1,293.15,37.66Zm7.43,14.07A7.48,7.48,0,1,0,293,59.15,7.5,7.5,0,0,0,300.59,51.73Z"/></svg>